<?xml version="1.0" encoding="UTF-8" standalone="no"?>
<!-- Created with Inkscape (http://www.inkscape.org/) -->

<svg
   xmlns:dc="http://purl.org/dc/elements/1.1/"
   xmlns:cc="http://creativecommons.org/ns#"
   xmlns:rdf="http://www.w3.org/1999/02/22-rdf-syntax-ns#"
   xmlns:svg="http://www.w3.org/2000/svg"
   xmlns="http://www.w3.org/2000/svg"
   xmlns:sodipodi="http://sodipodi.sourceforge.net/DTD/sodipodi-0.dtd"
   xmlns:inkscape="http://www.inkscape.org/namespaces/inkscape"
   id="svg2"
   version="1.1"
   inkscape:version="0.48.4 r9939"
   width="427.575"
   height="425.2"
   xml:space="preserve"
   sodipodi:docname="TUBAF_Logo_orig_RGB.eps"><metadata
     id="metadata8"><rdf:RDF><cc:Work
         rdf:about=""><dc:format>image/svg+xml</dc:format><dc:type
           rdf:resource="http://purl.org/dc/dcmitype/StillImage" /><dc:title></dc:title></cc:Work></rdf:RDF></metadata><defs
     id="defs6"><clipPath
       clipPathUnits="userSpaceOnUse"
       id="clipPath18"><path
         d="M 0,3401.57 0,0 l 3420.56,0 0,3401.57 -3420.56,0 z"
         id="path20" /></clipPath></defs><sodipodi:namedview
     pagecolor="#ffffff"
     bordercolor="#666666"
     borderopacity="1"
     objecttolerance="10"
     gridtolerance="10"
     guidetolerance="10"
     inkscape:pageopacity="0"
     inkscape:pageshadow="2"
     inkscape:window-width="640"
     inkscape:window-height="480"
     id="namedview4"
     showgrid="false"
     inkscape:zoom="0.55503291"
     inkscape:cx="213.78751"
     inkscape:cy="212.60001"
     inkscape:window-x="0"
     inkscape:window-y="27"
     inkscape:window-maximized="0"
     inkscape:current-layer="g10" /><g
     id="g10"
     inkscape:groupmode="layer"
     inkscape:label="ink_ext_XXXXXX"
     transform="matrix(1.25,0,0,-1.25,0,425.2)"><g
       id="g12"
       transform="scale(0.1,0.1)"><g
         id="g14"><g
           id="g16"
           clip-path="url(#clipPath18)"><path
             d="m 550.625,732.719 91.605,77.953 57.809,-67.961 c 5.242,-6.152 10.449,-11.633 20.219,-19.922 l 25.855,-22.269 14.532,12.378 -95.254,111.981 -50.555,47.633 -15.891,-13.512 2.84,-2.16 c 1.574,-1.219 2.531,-2.34 3.582,-3.551 3.754,-4.457 5.414,-8.168 4.977,-10.457 l -0.227,-0.703 c -0.625,-1.84 -0.929,-2.77 -19.121,-18.238 L 379.902,644.34 l 5.043,-5.899 39.504,-36.941 16.063,13.719 -3.168,2.121 c -1.106,0.691 -1.989,1.742 -3.813,3.902 -2.633,3.039 -3.504,6.219 -2.422,8.758 0.77,1.691 0.793,1.738 17.696,16.121 l 81.308,69.211 55.61,-65.41 1.949,-2.301 c 3.867,-4.641 5.629,-6.75 18.211,-17.57 l 25.097,-22.969 15.36,13.02 -95.715,112.617"
             style="fill:#3365b6;fill-opacity:1;fill-rule:nonzero;stroke:none"
             id="path22" /><path
             d="m 930.961,471.711 c -18.652,-23.91 -45.234,-31.473 -79.012,-22.602 -12.972,8.391 -19.703,13.59 -32.125,23.289 l -28.672,22.364 77.657,99.57 c 5.699,-4.223 10.285,-7.641 14.253,-10.551 7.36,-5.402 12.622,-9.242 19,-14.211 44.036,-34.359 53.465,-66.371 28.899,-97.859 z m -1.781,109.48 c -14.383,11.25 -32.293,24.047 -47.879,34.231 l -51.844,33.937 -13.055,-16.75 6.778,-5.289 c 5.453,-4.269 7.304,-7.449 7.164,-9.32 -0.25,-2.16 -0.399,-3.148 -15.356,-22.328 L 644.273,376.73 l 6.141,-4.73 46.148,-28.129 12.399,15.891 -7.191,5.617 c -3.192,2.453 -4.665,5.41 -4.129,8.109 0.425,1.782 0.425,1.883 14.539,19.973 l 63.367,81.238 16.543,-12.898 c 21.172,-16.492 21.898,-21.742 21.129,-57.789 l -9.196,-151.821 7.344,-5.679 42.981,-25.641 12.394,15.84 -6.769,5.301 c -7.434,5.82 -11.278,12 -10.293,28.258 l 4.922,121.839 c 0.71,18 0.347,26.621 -1.997,34.59 17.446,-7.597 34.297,-11.437 50.161,-11.437 l 0,0 c 26.976,0 50.043,11.297 66.683,32.617 32.781,42.051 19.266,86.961 -40.269,133.312"
             style="fill:#3365b6;fill-opacity:1;fill-rule:nonzero;stroke:none"
             id="path24" /><path
             d="m 1134.47,451.871 -7.57,-19.461 3.52,-0.57 c 1.99,-0.32 3.39,-0.879 4.87,-1.442 5.39,-2.097 8.65,-4.578 9.33,-6.847 l 0.14,-0.692 c 0.33,-1.918 0.49,-2.867 -8.16,-25.129 l -98.42,-253.371 -1.05,-2.66 128.29,-49.8279 c 6.22,-2.3906 14.19,-4.6914 26.73,-7.7305 l 33.33,-7.2695 6.92,17.8203 -145.15,56.3866 47.43,122.203 79.98,-31.043 c 6.32,-2.476 14.94,-5.008 27.3,-7.957 l 33.33,-7.261 6.88,17.75 -137.73,53.531 L 1188,410.48 1271.64,378 c 7.6,-3 14.85,-5.352 27.29,-7.969 l 33.33,-7.269 6.89,17.82 -137.57,53.379 -67.11,17.91"
             style="fill:#3365b6;fill-opacity:1;fill-rule:nonzero;stroke:none"
             id="path26" /><path
             d="m 1519.9,348.609 -12.23,1.731 -52.92,0.789 -2.85,-19.918 7.88,-1.172 c 8.01,-1.129 10.68,-3.367 11.46,-4.578 0.84,-1.981 1.22,-2.91 -2.25,-27.012 l -39.77,-278.2107 7.59,-1.0586 54.4,0.0391 2.88,20.1523 -8.59,0.4687 c -2.56,0.3711 -7.01,1.5118 -8.14,4.9102 -0.58,1.9414 -0.51,2.6406 2.71,25.1406 l 39.83,278.7184"
             style="fill:#3365b6;fill-opacity:1;fill-rule:nonzero;stroke:none"
             id="path28" /><path
             d="m 1743.18,186.281 0.71,122.86 10.73,-0.059 c 9.1,0 16.64,0.25 23.3,0.477 4.76,0.14 8.87,0.281 12.44,0.281 l 0.67,0 c 23.18,-0.141 42.09,-5.442 54.62,-15.328 12.66,-9.992 19.01,-24.282 18.89,-42.563 -0.16,-31.269 -10.1,-44.73 -48.27,-65.019 -26.57,-0.989 -34.27,-1.18 -42.97,-1.18 l -7.67,0 c -5.52,0.059 -12.98,0.102 -22.45,0.531 z m 89.11,-157.9294 c -12.09,-1.0821 -19.1,-1.2618 -27.67,-1.2618 l -7.83,0.0391 c -17.95,0.1016 -35.39,1.2227 -54.5,2.582 l 0.76,130.7891 35.18,-0.18 c 70.89,-0.429 101.04,-19.832 100.75,-64.8903 -0.16,-29.4883 -13.26,-48.3203 -46.69,-67.0781 z m 11.84,149.4374 c 42.5,19.492 64.13,45.84 64.29,78.32 0.28,51.243 -40.73,79.653 -115.52,80.133 l -2.12,0 c -15.37,0 -30.77,-1.004 -49.91,-3.203 l -61.73,-6.269 -0.13,-18.989 8.58,0.699 c 5.75,0 9.68,-1.179 11.14,-3.039 l 0.35,-0.621 c 1,-1.64 1.5,-2.519 1.38,-26.379 L 1698.85,3 1701.54,2.80859 C 1729.79,0.550781 1744.38,0.0390625 1761.42,0 l 2.48,0 0,0 c 101.37,0 159.73,36.4609 160.09,100.031 0.28,41.438 -26.61,67.539 -79.86,77.758"
             style="fill:#3365b6;fill-opacity:1;fill-rule:nonzero;stroke:none"
             id="path30" /><path
             d="m 2169.47,99.4609 -36.55,125.9101 82.41,23.899 c 6.58,1.929 14.98,5.21 26.47,10.32 l 30.87,14.441 -5.27,18.328 -141.95,-41.199 -33.54,115.59 86.22,24.98 c 7.82,2.301 14.98,4.782 26.48,10.258 l 30.89,14.481 -5.31,18.332 -141.75,-41.141 -64.19,-26.578 5.81,-20.023 3.15,1.64 c 1.7,0.942 3.11,1.36 4.77,1.832 5.51,1.59 9.94,1.36 11.51,0.231 l 0.53,-0.473 c 1.44,-1.309 2.19,-2.008 8.82,-24.918 l 76.58,-263.7812 132.16,38.3907 c 7.95,2.2895 17.53,6.3785 25.91,10.0785 l 30.9,14.492 -5.35,18.328 -149.57,-43.4181"
             style="fill:#3365b6;fill-opacity:1;fill-rule:nonzero;stroke:none"
             id="path32" /><path
             d="m 2515.99,424.398 c -12.88,-8.386 -20.36,-12.316 -33.84,-19.457 l -32.67,-17.242 -58.92,111.66 c 6.13,3.422 11.06,6.231 15.34,8.621 7.97,4.5 13.69,7.731 20.87,11.532 20.91,11.058 39.18,16.636 54.37,16.636 20.63,0 35.9,-9.988 46.74,-30.468 14.1,-26.809 10.09,-54.141 -11.89,-81.282 z m 192.18,-77.66 c -10.16,-5.398 -16.79,-4.75 -30,2.192 l -109.1,54.468 c -16.11,8.024 -24.12,11.25 -32.31,12.383 38.48,34.969 48.96,76.641 28.62,115.207 -24.72,46.832 -71.49,53.223 -138.12,18.051 -16.22,-8.519 -35.24,-19.629 -50.81,-29.617 l -52.27,-33.332 9.94,-18.801 7.57,4.043 c 5.03,2.609 7.97,3.18 9.57,3.18 0.69,0 1.25,-0.141 1.87,-0.473 1.86,-1.16 2.74,-1.641 14.08,-23.199 l 129.51,-245.488 6.87,3.597 44.6,30.531 -9.39,17.848 -8.08,-4.258 c -3.48,-1.871 -6.81,-2.109 -9.1,-0.429 -1.46,1.089 -1.48,1.14 -11.93,20.91 l -48.37,91.687 18.54,9.762 c 11.58,6.129 18.32,8.391 24.89,8.391 9.07,0 18.79,-4.411 36.48,-12.852 l 134.7,-70.68 8.15,4.371 41.07,28.68 -9.39,17.801 -7.59,-3.973"
             style="fill:#3365b6;fill-opacity:1;fill-rule:nonzero;stroke:none"
             id="path34" /><path
             d="m 2919.77,757.609 -32.88,-42.32 13.92,-14.48 5.79,5.523 c 4.31,4.18 8.49,6.898 11.09,6.609 2.1,-0.613 3.04,-0.851 19.92,-18.382 l 52.05,-54.149 c -14.69,-33.43 -30.86,-57.672 -52.38,-78.289 -26.72,-25.769 -57.4,-39.332 -88.64,-39.332 -0.03,0 -0.03,0 -0.03,0 -35.34,0 -70.54,17.109 -101.76,49.551 -62.39,64.859 -60.61,147.351 4.55,210.019 23.16,22.27 45.18,35.063 60.45,35.063 5.52,0 9.98,-1.684 13.24,-5.121 l 2.15,-2.231 17.18,19.168 -33.98,35.344 -21.89,-18.141 c -25.15,-20.761 -35.61,-29.339 -46.4,-39.75 -44.66,-42.98 -70.4,-90.832 -74.45,-138.48 -4.03,-47.68 13.76,-93.621 51.41,-132.762 33.36,-34.648 72.56,-52.918 113.4,-52.918 40.24,0 80.07,17.848 115.12,51.598 31.3,30.09 49.58,58.133 81.52,124.922 l 0.87,1.84 -101.34,105.339 -8.91,-8.621"
             style="fill:#3365b6;fill-opacity:1;fill-rule:nonzero;stroke:none"
             id="path36" /><path
             d="m 1259.89,2512.4 -9.24,-10.31 c -3.24,-3.56 -6.38,-7.32 -9.63,-11.12 l -6.54,-7.68 20.76,-18.4 c 3.08,-2.72 6.2,-5.39 9.26,-8.1 7.07,-6.15 14.39,-12.57 21.4,-19.04 4.08,-3.8 6.75,-6.14 10.1,-6.14 3.42,0 6.33,2.66 9.75,6.09 12.09,12.19 24.77,25.18 39.91,40.95 9.8,10.18 19.55,20.34 29.31,30.56 7.42,7.78 14.85,15.56 22.31,23.34 4.94,5.16 9.94,10.27 14.9,15.38 l 4.6,4.68 c 23.9,-20.9 226.11,-213.81 246.3,-234.95 l -387.19,-365.16 1.67,-2.06 c 1.26,-1.55 2.41,-3.01 3.53,-4.46 2.44,-3.14 4.74,-6.08 7.34,-8.81 9.71,-9.94 18.45,-18.66 26.81,-26.53 0.85,-0.8 1.69,-1.64 2.53,-2.48 4.25,-4.17 9.03,-8.96 16.36,-10.92 l 1.64,-0.47 370.5,379.26 c 0.28,-0.19 0.5,-0.42 0.73,-0.65 5.7,-5.82 11.41,-11.63 17.11,-17.49 11.17,-11.48 22.4,-22.97 33.7,-34.31 11.98,-12 24.02,-23.9 36.07,-35.81 8.06,-7.92 16.07,-15.85 24.07,-23.82 6.91,-6.89 13.78,-13.73 20.64,-20.62 9.9,-9.93 19.78,-19.88 29.8,-29.72 17.65,-17.39 35.41,-34.69 53.18,-51.98 l 18.4,-17.96 c 2.58,-2.52 5.2,-5.01 7.79,-7.54 4.2,-3.99 8.36,-7.97 12.43,-12.05 8.52,-8.53 16.98,-17.02 25.46,-25.55 9.83,-9.89 19.69,-19.78 29.56,-29.62 16.55,-16.5 33.14,-32.82 49.79,-49.12 6.12,-5.96 12.75,-12.33 19.98,-18.29 2.57,-2.11 4.62,-3.37 6.93,-3.37 2.71,0 4.84,1.78 7.3,4.07 11.78,11.25 23.33,22.27 34.8,33.66 3.61,3.56 6.86,7.45 10,11.25 l 2.17,2.58 c 1,1.22 1.86,2.63 2.71,4.03 0.36,0.61 0.73,1.22 1.13,1.82 l 1.29,1.98 -3.92,3.79 c -1.05,1.09 -2.07,2.07 -3.09,3 l -93.95,86.44 c -83.47,76.87 -166.98,153.75 -250.52,230.53 -6.49,5.95 -13.26,11.81 -19.85,17.44 -3.7,3.19 -7.4,6.33 -11.06,9.56 -4.26,3.75 -8.48,7.5 -12.87,11.39 l -4.4,3.95 c 25.8,26.62 51.4,53.34 77.01,80.01 47.97,49.96 97.57,101.69 147.23,151.85 1.43,-1.18 2.69,-2.25 3.94,-3.34 l 11.06,-9.75 c 13.49,-11.85 26.94,-23.76 40.34,-35.71 9.03,-8.02 17.65,-14.07 26.42,-18.47 6.23,-3.14 12.35,-6.28 18.26,-9.7 7.84,-4.55 15.63,-9.17 23.44,-13.76 7.44,-4.41 14.91,-8.76 22.38,-13.12 16.68,-9.66 33.45,-19.22 50.2,-28.74 0.24,-0.09 0.42,-0.28 0.64,-0.42 0.9,-0.7 2.26,-1.74 4.18,-1.74 1.46,0 2.87,0.61 4.16,1.83 l 1.6,1.51 -0.97,1.91 c -0.5,0.98 -0.96,1.97 -1.46,2.95 -1.05,2.21 -2.12,4.51 -3.49,6.66 l -0.72,1.22 c -7.01,11.44 -14.3,23.26 -21.71,34.74 -6.45,10 -12.96,19.95 -19.47,29.88 -8.07,12.37 -16.13,24.66 -24.11,37.08 -3.63,5.67 -7.07,11.44 -10.51,17.2 -2.72,4.59 -5.49,9.19 -8.32,13.74 -3.14,4.97 -5.99,8.62 -8.9,11.62 -8.23,8.35 -16.61,16.54 -24.94,24.75 -4.57,4.5 -9.15,9.05 -13.72,13.55 -5.48,5.48 -10.96,10.92 -16.43,16.45 -5.57,5.63 -11.2,11.2 -16.82,16.83 -25.92,25.69 -51.88,51.33 -77.83,77.01 -8.12,8.02 -16.25,16.09 -24.48,24 -3.43,3.33 -5.86,5.11 -8.86,5.11 -3.18,0 -5.9,-2.16 -9.08,-4.96 l -15.78,-13.92 c -7.19,-6.33 -14.35,-12.61 -21.52,-19 -3.21,-2.85 -6.41,-5.76 -9.63,-8.75 l -6.41,-5.86 1.87,-2.12 c 34.74,-39.27 69.01,-78.04 103.44,-116.95 -1.73,-1.83 -3.44,-3.61 -5.11,-5.39 -4.8,-5.11 -9.33,-9.89 -14.13,-14.48 -63.59,-61.08 -127.22,-122.14 -190.87,-183.16 l -21.24,-20.35 c -0.78,-0.75 -1.59,-1.41 -2.46,-2.11 -81.51,72 -168.23,148.67 -254.65,225.73 18.98,17.48 38.35,34.73 57.1,51.46 21.42,19.13 43.56,38.86 65.06,58.83 l 1.99,1.88 -51.23,61.59 -2.14,-1.31 c -1.05,-0.66 -2.03,-1.27 -2.95,-1.83 -1.97,-1.17 -3.7,-2.2 -5.29,-3.37 l -4,-2.96 c -5.48,-4.03 -11.12,-8.15 -16.44,-12.61 l -6.64,-5.48 c -20.01,-16.64 -40.75,-33.9 -60.79,-51.19 -12.5,-10.83 -24.59,-22.55 -36.28,-33.84 l -2.16,-2.06 c -19.23,-18.61 -36.35,-35.39 -52.27,-51.38 -17.62,-17.67 -31.94,-32.38 -45.02,-46.32 -11.27,-11.99 -22.45,-24.41 -33.25,-36.46"
             style="fill:#3365b6;fill-opacity:1;fill-rule:nonzero;stroke:none"
             id="path38" /><path
             d="m 329.223,1033.88 c -19.543,0 -35.43,-15.88 -35.43,-35.431 0,-19.539 15.887,-35.418 35.43,-35.418 19.554,0 35.445,15.879 35.445,35.418 0,19.551 -15.891,35.431 -35.445,35.431"
             style="fill:#3365b6;fill-opacity:1;fill-rule:nonzero;stroke:none"
             id="path40" /><path
             d="m 3106.81,1033.88 c -19.55,0 -35.44,-15.88 -35.44,-35.431 0,-19.539 15.89,-35.418 35.44,-35.418 19.54,0 35.47,15.879 35.47,35.418 0,19.551 -15.93,35.431 -35.47,35.431"
             style="fill:#3365b6;fill-opacity:1;fill-rule:nonzero;stroke:none"
             id="path42" /><path
             d="m 354.109,1443.35 -19.961,-4 2.414,-8.29 c 0.872,-4.3 0.168,-7.63 -1.945,-9.28 -1.637,-1.17 -2.293,-1.36 -24.633,-5.82 l -246.3473,-49.11 -14.2265,71.29 c -1.2891,6.56 -3.379,12.41 -5.9571,19.88 -0.8008,2.25 -1.6367,4.64 -2.5039,7.22 l -11.25,32.16 -18.7773,-3.76 49.2265,-246.56 c 2.2891,-11.54 3.2539,-16.31 7.4727,-27.24 l 12.2851,-31.86 18.6485,3.74 -26.3203,132.1 298.7816,59.62 2.867,0.55 -1.582,7.71 -18.192,51.65"
             style="fill:#3365b6;fill-opacity:1;fill-rule:nonzero;stroke:none"
             id="path44" /><path
             d="m 286.012,2345.17 c -2.676,-5.9 -5.977,-13.87 -9.332,-21.84 -3.77,-9.05 -7.66,-18.38 -10.594,-24.66 -2.063,-4.45 -5.41,-11.71 -10.125,-20.95 l -111.496,51.7 3.332,7.18 c 4.336,9.37 7.715,17.39 10.383,23.86 1.972,4.68 3.64,8.72 5.226,12.14 14.77,31.87 35.039,48.7 58.551,48.7 7.965,0 16.242,-1.96 24.637,-5.86 29.125,-13.5 49.019,-48.99 39.418,-70.27 z m -6.688,-78.28 14.817,31.97 c 22.671,48.89 45.797,71.63 72.828,71.63 8.738,0 17.926,-2.25 28.047,-6.99 33.328,-15.42 45.984,-37.74 39.886,-70.22 -2.406,-12.89 -6.418,-21.33 -11.058,-31.08 l -2.438,-5.15 c -7.211,-15.57 -13.492,-27.05 -23.039,-44.48 l -0.379,-0.66 -118.664,54.98 z m -157.636,11.02 c 2.414,5.25 5.109,8.34 7.367,8.86 l 0.703,0.09 c 0.32,0 0.629,0.05 0.926,0.05 1.972,0 7.5,-2.3 23.675,-9.8 l 249.899,-115.83 1.304,2.35 c 13.739,24.65 20.254,37.78 27.422,53.29 43.293,93.42 34.735,162.52 -23.464,189.47 -10.637,4.97 -21.208,7.45 -31.332,7.45 -26.063,0 -49.872,-15.65 -72.629,-47.81 -0.075,46.74 -15.024,77.34 -44.536,91.03 -10.539,4.92 -21.117,7.37 -31.406,7.37 -34.476,0 -65.383,-27.38 -89.418,-79.23 -6.719,-14.48 -12.508,-29.53 -18.746,-48.65 l -19.914,-58.73 17.223,-7.97 2.926,8.06"
             style="fill:#3365b6;fill-opacity:1;fill-rule:nonzero;stroke:none"
             id="path46" /><path
             d="m 307.742,2639.9 c 0.887,1.73 1.77,2.86 2.848,4.22 3.566,4.45 6.871,6.75 9.289,6.8 l 0.68,-0.1 c 2.019,-0.28 2.933,-0.42 21.535,-15.42 l 211.519,-170.65 2.254,-1.83 86.391,107.13 c 5.203,6.42 10.734,15.29 15.496,23.16 l 17.035,29.53 -14.851,12.01 -97.813,-121.22 -102.023,82.3 53.839,66.76 c 4.266,5.29 9.465,12.98 15.832,23.62 l 17.075,29.53 -14.856,11.95 -92.797,-114.98 -93.648,75.52 56.363,69.89 c 5.106,6.28 9.512,12.43 15.844,23.57 l 17.012,29.54 -14.84,12 -92.641,-114.89 -37.402,-58.55 16.234,-13.08 1.625,3.19"
             style="fill:#3365b6;fill-opacity:1;fill-rule:nonzero;stroke:none"
             id="path48" /><path
             d="m 615.961,2969.29 c 5.387,4.5 9.707,8.16 13.477,11.3 6.984,5.95 12.023,10.17 18.398,15.23 22.852,18.19 43.285,27.42 60.684,27.42 15.816,0 29.296,-7.26 41.199,-22.22 18.843,-23.66 20.023,-51.27 3.445,-82.08 -11.312,-10.82 -18.019,-16.16 -30.117,-25.77 l -28.422,-22.65 -78.664,98.77 z m -42.797,-36.65 c 5.699,4.54 8.738,5.01 9.781,5.01 0.274,0 0.508,-0.04 1.008,-0.24 2.008,-0.74 2.918,-1.07 18.09,-20.1 l 171.117,-214.92 1.805,-2.3 6.066,4.87 38.153,38.3 -12.563,15.75 -7.168,-5.67 c -3.047,-2.45 -6.113,-3.38 -8.855,-2.06 -1.649,0.79 -2.114,1.31 -15.969,18.74 l -64.184,80.63 16.418,13.08 c 12.848,10.26 19.547,13.36 28.645,13.36 7.715,0 17.461,-2.39 32.461,-6.38 l 144.027,-43.96 1.445,-0.43 7.278,5.77 35.008,35.8 -12.543,15.75 -6.719,-5.29 c -8.836,-7.08 -15.777,-7.74 -29.906,-3.42 l -117.329,33.28 c -16.031,4.5 -24.992,6.62 -34.058,6.14 31.316,41.48 33.848,84.42 6.707,118.51 -32.957,41.39 -80.199,38.94 -139.059,-7.93 -14.441,-11.48 -31.035,-25.88 -44.457,-38.53 l -45.117,-42.47 13.215,-16.64 6.703,5.35"
             style="fill:#3365b6;fill-opacity:1;fill-rule:nonzero;stroke:none"
             id="path50" /><path
             d="m 1109.39,2952.93 c 20.89,0 42.83,3.95 65.18,11.71 40.95,14.35 69.26,32.21 126.14,79.7 l 1.55,1.26 -48.24,137.95 -11.69,-4.07 -47.55,-24.8 6.65,-18.98 7.55,2.62 c 6.35,2.2 11.81,2.02 12.82,1.36 1.67,-1.36 2.41,-2.02 10.46,-24.98 l 24.79,-70.88 c -27.28,-24.28 -52.08,-39.52 -80.27,-49.41 -16.93,-5.9 -33.57,-8.9 -49.42,-8.9 -54.22,0 -97.73,35.53 -119.38,97.54 -14.527,41.58 -13.601,81.38 2.69,115.09 16.32,33.74 47.04,59.34 88.9,73.96 19.01,6.65 36.31,10.17 49.98,10.17 11.26,0 25.54,-2.34 29.48,-13.64 l 0.99,-2.9 23.61,10.26 -16.14,46.27 -27.45,-7.36 c -31.54,-8.44 -44.6,-11.9 -58.69,-16.83 -119.159,-41.67 -170.487,-132.47 -133.944,-237 24.032,-68.76 75.774,-108.14 141.964,-108.14 l 0.02,0"
             style="fill:#3365b6;fill-opacity:1;fill-rule:nonzero;stroke:none"
             id="path52" /><path
             d="m 1508.72,3216.65 23.46,71.15 13.01,38.02 c 4.19,13.6 5.86,19.13 9.49,33.84 3.62,-10.92 6.5,-16.78 13.8,-31.68 l 17.33,-35.91 33.83,-66.66 -110.92,-8.76 z m -74.67,-165.24 43.05,9.66 0.8,19.82 -5.51,-0.46 c -0.49,-0.05 -0.95,-0.09 -1.4,-0.09 -4.46,0 -4.97,1.83 -5.12,3.56 -0.21,2.95 0.34,4.87 3.41,14.53 l 28.51,88.92 135.53,10.74 63.58,-125.86 9.71,0.79 42.17,9.61 -1.56,20.01 -6.87,-0.5 c -8.63,-0.66 -11.48,0.04 -21.76,20.62 l -141.69,277.12 -0.85,1.69 -7.99,-0.61 -34.64,-7.4 -114.99,-327.47 -0.43,-1.32 8.15,-13.97 7.9,0.61"
             style="fill:#3365b6;fill-opacity:1;fill-rule:nonzero;stroke:none"
             id="path54" /><path
             d="m 1857.8,3067.68 7.68,-1.5 54.15,-2.76 3.92,19.96 -8.55,0.94 c -2.53,0.52 -6.93,1.88 -7.89,5.35 -0.47,1.92 -0.35,2.62 4.03,24.98 l 54.36,276.19 -12.11,2.39 -52.85,3.56 -3.89,-19.78 7.83,-1.55 c 7.97,-1.54 10.5,-3.98 11.2,-5.2 0.76,-2.01 1.08,-2.95 -3.61,-26.81 l -54.27,-275.77"
             style="fill:#3365b6;fill-opacity:1;fill-rule:nonzero;stroke:none"
             id="path56" /><path
             d="m 2086.79,3317.2 -144.08,-91.69 121.79,-197.58 0.67,-1.08 11.69,-2.25 42.11,-1.92 3.89,19.73 -2.82,0.57 c -15.22,2.95 -17.16,3.32 -25.69,17.62 l -100.29,160.08 180.26,111.46 2.04,1.28 -6.13,15.74 -64.59,8.45 -5.39,-19.13 3.07,-0.61 c 4.41,-0.89 4.11,-2.44 3.96,-3.33 -0.68,-3.42 -6.23,-8.11 -20.49,-17.34"
             style="fill:#3365b6;fill-opacity:1;fill-rule:nonzero;stroke:none"
             id="path58" /><path
             d="m 2455.78,3152.94 -3.96,-39.84 -5.86,-74.53 -99.24,50.35 57.1,48.42 30.92,25.68 c 10.68,9.47 15.04,13.36 25.76,23.96 -2.59,-11.12 -3.2,-17.67 -4.72,-34.04 z m -217.18,-180.33 11.03,16.46 -4.94,2.53 c -2.12,1.03 -3.5,2.2 -4.03,3.33 -0.27,0.56 -0.5,1.4 0.29,3 1.34,2.62 2.79,3.94 10.24,10.45 l 70.93,61.22 121.24,-61.5 -11.37,-140.58 8.69,-4.36 41.02,-13.78 9.1,17.91 -6.12,3.09 c -7.66,3.89 -9.8,6.05 -7.83,28.97 l 23.57,310.36 0.17,1.92 -7.15,3.61 -33.44,11.77 -268.86,-219.56 -1,-0.84 -0.35,-16.22 7.08,-3.57 41.73,-14.21"
             style="fill:#3365b6;fill-opacity:1;fill-rule:nonzero;stroke:none"
             id="path60" /><path
             d="m 2614.91,2769.36 193.12,203.5 c 17.39,-15.05 24.23,-21.66 30.87,-28.08 1.67,-1.6 3.31,-3.19 5.11,-4.93 79.63,-75.51 87.83,-147.7 24.41,-214.59 -30.79,-32.44 -64.43,-48.89 -100.01,-48.89 l -0.75,0 c -40.05,0.8 -73.33,16.49 -111.3,52.49 -2.68,2.53 -5.16,4.88 -7.6,7.18 -9.16,8.62 -17.83,16.74 -33.85,33.32 z m 6.64,-45.84 c 54.26,-51.46 92.04,-73.45 134.73,-78.42 9.65,-1.45 19.2,-2.2 28.41,-2.2 0.02,0 0,0 0.02,0 45.34,0 85.51,18.14 119.42,53.86 40.93,43.13 55.88,91.82 43.27,140.86 -9.34,36.89 -32.46,71.29 -74.91,111.61 -16.14,15.28 -27.3,24.51 -50.8,43.4 l -47.89,38.39 -14.3,-15.04 6.19,-5.91 c 5.07,-4.73 6.61,-8.15 6.28,-9.98 -0.47,-2.11 -0.7,-3.1 -17.43,-20.72 l -187.08,-197.16 -1.88,-1.96 1.85,-2.02 c 20.79,-22.32 33.47,-35.11 54.12,-54.71"
             style="fill:#3365b6;fill-opacity:1;fill-rule:nonzero;stroke:none"
             id="path62" /><path
             d="m 3091.89,2647.12 c -0.93,-1.78 -1.35,-2.58 -21.95,-14.76 l -236.55,-139.6 69.93,-118.52 c 3.37,-5.72 8.23,-12.43 16.24,-22.6 l 21.68,-26.34 16.46,9.7 -79.18,134.16 112.93,66.63 43.59,-73.9 c 3.42,-5.86 8.83,-13.36 16.51,-23.1 l 21.69,-26.35 16.46,9.7 -75.15,127.29 103.61,61.13 45.67,-77.3 c 4.07,-6.94 8.27,-13.22 16.49,-23.11 l 21.71,-26.35 16.43,9.76 -75.05,127.07 -41.64,55.6 -18,-10.6 2.43,-2.67 c 1.34,-1.4 2.09,-2.67 2.93,-4.12 2.95,-4.97 3.96,-8.91 3.1,-11.11 l -0.34,-0.61"
             style="fill:#3365b6;fill-opacity:1;fill-rule:nonzero;stroke:none"
             id="path64" /><path
             d="m 3416.37,1696.42 -20.17,0.98 -0.36,-8 c -0.38,-8.11 -2.39,-10.98 -3.53,-11.82 -2.06,-1.13 -3.32,-1.45 -27.04,-0.38 l -277.88,13.12 -2.88,0.16 -0.33,-7.88 5.2,-53.91 20.33,-0.94 -0.35,8.58 c 0.1,2.57 0.85,7.12 4.15,8.57 0.88,0.39 1.28,0.53 3.96,0.53 3.21,0 9.14,-0.3 21.33,-0.86 l 278.32,-13.11 2.88,-0.15 0.56,12.34 -4.19,52.77"
             style="fill:#3365b6;fill-opacity:1;fill-rule:nonzero;stroke:none"
             id="path66" /><path
             d="m 3377.25,1457.97 c 0.04,-2.06 -0.24,-3.51 -0.55,-5.11 -1.05,-5.67 -2.88,-9.33 -4.96,-10.4 l -0.66,-0.25 c -0.82,-0.27 -1.15,-0.42 -2.21,-0.42 -2.8,0 -9.08,1 -24.02,3.8 l -267.14,50.16 -2.83,0.52 -25.39,-135.24 c -1.5,-8 -2.16,-18.04 -2.66,-27.69 l -1.04,-34.09 18.81,-3.56 28.72,153.1 128.85,-24.19 -15.83,-84.33 c -1.23,-6.61 -2.11,-15.56 -2.79,-28.27 l -1,-34.08 18.78,-3.51 27.23,145.22 118.25,-22.17 -16.57,-88.22 c -1.49,-8.03 -2.48,-15.57 -2.75,-28.31 l -1.03,-34.09 18.77,-3.51 27.17,145.03 5.25,69.28 -20.5,3.89 0.1,-3.56"
             style="fill:#3365b6;fill-opacity:1;fill-rule:nonzero;stroke:none"
             id="path68" /><path
             d="m 25.9727,1609.24 c 0.1367,5.2 1.3359,9.14 3.2539,10.72 1.3398,0.76 2.0664,1.18 9.707,1.18 3.9141,0 9.4258,-0.15 17.3711,-0.36 l 152.0113,-4.66 c 40.551,-1.22 64.782,3.99 85.711,19.03 31.36,21.76 46.012,54.11 47.575,104.91 1.668,54.8 -12.239,96.47 -41.344,123.99 -21.762,20.81 -49.317,30.65 -89.317,31.88 l -203.43709,6.18 -0.28516,-10.64 4.38675,-44.16 20.6718,-0.6 0,2.95 c 0,13.78 1.0977,14.25 11.1993,14.25 1.2265,0 2.5546,0 4.0117,-0.05 l 168.2147,-5.11 c 50.27,-1.55 75.059,-16.17 98.059,-57.98 2.664,-19.74 2.926,-28.51 2.508,-41.72 -1.196,-39.99 -17.555,-71.57 -44.844,-86.53 -19.262,-10.13 -40.61,-13.79 -73.074,-12.76 L 0.308594,1665.77 0,1655.13 l 5.5625,-54.42 20.1055,-0.61 0.3047,9.14"
             style="fill:#3365b6;fill-opacity:1;fill-rule:nonzero;stroke:none"
             id="path70" /><path
             d="m 3034.74,2049.63 13.3,-33.29 217.57,-39.79 2.76,-0.56 c 21.07,-4.17 44.55,-8.81 65.68,-11.39 -13.83,-5.73 -22.06,-9.48 -29.94,-13.6 l -26.49,-13.59 -196.59,-96.47 2.24,-10.18 14.92,-40.3 20.92,4.54 -2.7,3.57 c -0.3,0.46 -0.66,2.1 -0.86,3.14 -1.41,6.42 -1.07,8.29 16.67,17.25 l 263.66,131.34 -1.43,6.47 -11.27,28.17 -243.29,46.64 c -22.49,4.83 -37.28,5.91 -57.46,6.47 6.47,3.84 13.36,7.73 20.81,11.39 13.38,7.4 20.03,11.11 37.63,22.45 l 198.71,131.02 1.64,1.08 -1.39,6.28 -10.19,24.23 -327.14,20.9 -1.07,0.1 -8.43,-6.51 1.01,-7.55 14.31,-38.4 19.82,4.27 -0.6,2.81 c -0.85,3.8 -0.78,6.7 0.17,8.16 0.3,0.47 0.81,1.08 2.22,1.36 3.07,0.7 4.57,0.51 12.49,-0.04 l 181.06,-8.25 c 8.82,-0.38 18.91,-0.52 29.57,-0.71 8.06,-0.1 16.69,-0.23 25.99,-0.47 2.09,-0.23 4.22,-0.42 6.47,-0.61 -17.35,-8.29 -32.87,-16.87 -55.2,-31.54 l -195.57,-128.39"
             style="fill:#3365b6;fill-opacity:1;fill-rule:nonzero;stroke:none"
             id="path72" /><path
             d="m 2139.61,1583.22 -13.6,2.85 -81.82,-54.78 -299.99,-280.69 0,331.21 c 40.1,6.1 68.13,27.99 69.34,54.14 l 0.04,236.11 -48.06,0 0,-187.69 c -0.16,-4.63 -0.31,-10.78 -0.31,-18.18 0,-20.63 -19.05,-37.36 -42.47,-37.36 -23.38,0 -42.44,16.73 -42.44,37.36 0,4.18 -0.09,8.16 -0.18,11.58 -0.07,2.62 -0.12,4.83 -0.12,6.51 l 0,187.78 -48.05,0 0,-233.25 0.02,-0.61 c -0.02,-0.17 -0.02,-0.37 -0.02,-0.51 0,-25.27 26.28,-47.62 64.22,-54.94 l 0,-332.15 -324.19,303.36 0.13,0.1 -32.89,31.13 -2.15,1.5 -0.55,0.56 -96.93,-103.12 34.9,-33.01 64.8,68.44 346.2,-323.91 -381.45,-356.9 32.41,-34.641 359.72,336.561 0,-519.338 48.03,0 0,519.338 359.72,-336.561 32.41,34.641 -381.42,356.9 324.63,303.86 60.07,83.71"
             style="fill:#3365b6;fill-opacity:1;fill-rule:nonzero;stroke:none"
             id="path74" /></g></g></g></g></svg>